<svg xmlns="http://www.w3.org/2000/svg" viewBox="0 0 600 800">
  <defs>
    <filter id="grain" x="-20%" y="-20%" width="140%" height="140%">
      <feTurbulence type="fractalNoise" baseFrequency="1.2" numOctaves="3" stitchTiles="stitch"/>
      <feColorMatrix type="saturate" values="0"/>
      <feComponentTransfer>
        <feFuncA type="linear" slope="0.12"/>
      </feComponentTransfer>
    </filter>
    <pattern id="fingerprint" patternUnits="userSpaceOnUse" width="140" height="140" patternTransform="rotate(8)">
      <g fill="none" stroke="#0b0b0b" stroke-width="2">
        <path d="M15 70c0-28 12-45 40-52 28-7 46 5 54 22 8 18 6 40-14 62-19 20-45 33-65 23C9 114 4 96 4 78c0-19 6-36 17-47" opacity="0.5"/>
        <path d="M38 70c0-22 8-35 28-40 20-5 32 4 38 18s4 32-10 48c-14 15-33 25-48 17-14-7-18-21-18-35z" opacity="0.55"/>
        <path d="M60 69c0-14 4-22 16-24 12-3 19 2 23 11 4 10 3 21-6 32-9 10-21 17-30 11-9-4-11-15-11-30z" opacity="0.6"/>
      </g>
    </pattern>
  </defs>
  <rect width="600" height="800" fill="#d9d7cf"/>
  <rect width="600" height="800" fill="#d9d7cf" filter="url(#grain)" opacity="0.55"/>
  <g transform="translate(0,0)">
    <rect x="155" y="120" width="110" height="560" fill="url(#fingerprint)"/>
    <rect x="155" y="120" width="110" height="560" fill="#0b0b0b" opacity="0.18"/>
    <rect x="95" y="300" width="410" height="110" fill="url(#fingerprint)"/>
    <rect x="95" y="300" width="410" height="110" fill="#0b0b0b" opacity="0.16"/>
  </g>
  <g fill="#0b0b0b" opacity="0.28">
    <rect x="150" y="110" width="120" height="30"/>
    <rect x="90" y="290" width="420" height="30"/>
  </g>
  <text x="58" y="118" font-family="'Archivo Black', 'Arial Black', sans-serif" font-size="72" letter-spacing="8" fill="#b50f0f">GOLGOTHA</text>
  <g font-family="'IBM Plex Mono', 'Courier New', monospace" fill="#0b0b0b">
    <text x="72" y="190" font-size="24" letter-spacing="12">A</text>
    <text x="72" y="230" font-size="24" letter-spacing="8">MOTION</text>
    <text x="72" y="270" font-size="24" letter-spacing="8">PICTURE</text>
  </g>
  <g font-family="'IBM Plex Mono', 'Courier New', monospace" fill="#0b0b0b" font-size="20" letter-spacing="6">
    <text x="420" y="720">WINTER</text>
    <text x="400" y="760">TWENTY-TWENTY-SIX</text>
  </g>
</svg>
