<svg xmlns="http://www.w3.org/2000/svg" viewBox="0 0 600 800">
  <defs>
    <linearGradient id="glow" x1="0" x2="1" y1="0" y2="1">
      <stop offset="0%" stop-color="#111"/>
      <stop offset="100%" stop-color="#050505"/>
    </linearGradient>
    <filter id="noise" x="-20%" y="-20%" width="140%" height="140%">
      <feTurbulence type="fractalNoise" baseFrequency="1.1" numOctaves="4"/>
      <feComponentTransfer>
        <feFuncR type="linear" slope="0.12"/>
        <feFuncG type="linear" slope="0.12"/>
        <feFuncB type="linear" slope="0.12"/>
        <feFuncA type="linear" slope="0.05"/>
      </feComponentTransfer>
    </filter>
    <linearGradient id="hand" x1="0.1" y1="0" x2="1" y2="1">
      <stop offset="0%" stop-color="#f1f1f1"/>
      <stop offset="55%" stop-color="#b7c7c7"/>
      <stop offset="100%" stop-color="#4d5c5c"/>
    </linearGradient>
  </defs>
  <rect width="600" height="800" fill="url(#glow)"/>
  <rect width="600" height="800" fill="#000" filter="url(#noise)" opacity="0.8"/>
  <g transform="translate(100,120)">
    <path d="M160 40c34 6 62 34 88 68 22 29 40 62 58 96 12 24 23 48 30 68 7 18 9 32 8 44-1 9-6 17-16 23-15 10-34 16-54 14-22-2-43-12-60-24-18-12-31-27-45-42-16-17-34-33-46-51-14-21-22-45-32-69-7-19-11-38-13-55-3-25 5-45 23-60 19-15 43-22 59-22z" fill="url(#hand)" stroke="#0b0b0b" stroke-width="6" stroke-linejoin="round" stroke-linecap="round" opacity="0.88"/>
    <path d="M165 70c20 4 37 19 53 38 17 21 32 48 43 72 7 16 13 32 16 45 3 11 3 18-1 24-4 6-12 9-20 10-11 1-22-2-32-7-13-6-23-15-33-24-11-10-20-19-28-31-10-14-16-29-22-44-5-14-8-26-10-38-3-17 2-30 11-38 9-7 20-9 23-7z" fill="#050505" opacity="0.45"/>
    <path d="M136 12c-24 4-46 16-62 32-18 18-26 40-26 66 0 23 6 49 15 74 9 25 20 51 34 74 13 21 28 39 46 56 20 19 40 37 64 50 22 12 46 20 69 21 23 1 46-6 64-19 12-9 22-22 24-36 3-21-4-44-12-63-11-27-23-53-37-78-17-30-35-61-57-86-23-26-50-48-82-59-15-4-30-6-40-4z" fill="none" stroke="#e9e6df" stroke-width="7" stroke-linecap="round" stroke-opacity="0.6" stroke-dasharray="12 16"/>
  </g>
  <text x="300" y="120" font-family="'IBM Plex Mono', 'Courier New', monospace" font-size="24" letter-spacing="12" fill="#e9e6df" text-anchor="middle">MOMMY LOVES YOU</text>
  <g font-family="'IBM Plex Mono', 'Courier New', monospace" fill="#e9e6df" font-size="18" letter-spacing="4">
    <text x="348" y="220">STARRING</text>
    <text x="348" y="250">DANIEL OAKLEY</text>
    <text x="348" y="290">AND</text>
    <text x="348" y="320">MARIA LIMON</text>
    <text x="348" y="370">WITH MUSIC BY</text>
    <text x="348" y="400">GRANT CLAYTOR</text>
    <text x="348" y="450">WRITTEN BY</text>
    <text x="348" y="480">GRACE CURLEY</text>
    <text x="348" y="530">PRODUCED BY</text>
    <text x="348" y="560">ETHAN BELLER</text>
    <text x="348" y="610">DIRECTED BY</text>
    <text x="348" y="640">CHRISTOPHER ROSICA</text>
  </g>
  <text x="300" y="730" font-family="'Archivo Black', 'Arial Black', sans-serif" font-size="82" letter-spacing="8" fill="#b50f0f" text-anchor="middle">GOLGOTHA</text>
  <text x="300" y="770" font-family="'IBM Plex Mono', 'Courier New', monospace" font-size="18" letter-spacing="6" fill="#e9e6df" text-anchor="middle">COLDBRICK PRESENTS</text>
</svg>
