<svg xmlns="http://www.w3.org/2000/svg" viewBox="0 0 320 400">
  <defs>
    <linearGradient id="shadow" x1="0" y1="0" x2="1" y2="1">
      <stop offset="0%" stop-color="#0d0d0d"/>
      <stop offset="70%" stop-color="#1c1b1b"/>
      <stop offset="100%" stop-color="#101010"/>
    </linearGradient>
    <linearGradient id="accent" x1="0" y1="0" x2="0" y2="1">
      <stop offset="0%" stop-color="#c2362b"/>
      <stop offset="100%" stop-color="#8b1010"/>
    </linearGradient>
  </defs>
  <rect width="320" height="400" fill="url(#shadow)"/>
  <rect x="26" y="26" width="268" height="348" fill="none" stroke="#e9e6df" stroke-opacity="0.16" stroke-width="3" stroke-dasharray="8 12"/>
  <circle cx="160" cy="146" r="74" fill="#1f1e1d" stroke="#e9e6df" stroke-opacity="0.25" stroke-width="4"/>
  <path d="M119 210c10-12 30-20 41-20s31 8 41 20c8 10 10 30 10 44s-7 40-51 40-51-26-51-40 2-34 10-44z" fill="#1a1a1a" stroke="#e9e6df" stroke-opacity="0.25" stroke-width="4"/>
  <path d="M107 168c6-10 11-35 12-52 0-9 12-22 41-22s40 13 40 22c1 17 6 42 12 52" fill="none" stroke="#c2362b" stroke-width="6" stroke-linecap="round" stroke-linejoin="round" stroke-opacity="0.85"/>
  <path d="M126 146c8 10 22 14 34 14s26-4 34-14" fill="none" stroke="#e9e6df" stroke-opacity="0.6" stroke-width="6" stroke-linecap="round"/>
  <path d="M140 178c8 6 20 8 20 8s12-2 20-8" fill="none" stroke="#e9e6df" stroke-opacity="0.6" stroke-width="4" stroke-linecap="round"/>
  <rect x="76" y="296" width="168" height="46" fill="none" stroke="#c2362b" stroke-width="2" stroke-opacity="0.5" stroke-dasharray="12 8"/>
  <text x="160" y="320" fill="#e9e6df" font-family="'Archivo Condensed', 'Arial Narrow', sans-serif" font-size="32" text-anchor="middle" letter-spacing="4">CR</text>
  <text x="160" y="352" fill="#c2362b" font-family="'IBM Plex Mono', monospace" font-size="14" text-anchor="middle" letter-spacing="6" opacity="0.7">DIRECTOR</text>
</svg>
