<svg xmlns="http://www.w3.org/2000/svg" viewBox="0 0 320 400">
  <defs>
    <linearGradient id="stage" x1="0" y1="0" x2="1" y2="1">
      <stop offset="0%" stop-color="#090909"/>
      <stop offset="100%" stop-color="#1a1a1a"/>
    </linearGradient>
  </defs>
  <rect width="320" height="400" fill="url(#stage)"/>
  <rect x="28" y="28" width="264" height="344" fill="none" stroke="#e9e6df" stroke-opacity="0.16" stroke-width="3" stroke-dasharray="14 10"/>
  <circle cx="160" cy="146" r="76" fill="#111" stroke="#e9e6df" stroke-opacity="0.24" stroke-width="4"/>
  <path d="M116 136c12-26 36-30 44-30s32 4 44 30" fill="none" stroke="#e9e6df" stroke-opacity="0.55" stroke-width="6" stroke-linecap="round"/>
  <path d="M124 170c12 12 24 16 36 16s24-4 36-16" fill="none" stroke="#c2362b" stroke-width="5" stroke-linecap="round" stroke-opacity="0.7"/>
  <path d="M136 190c6 6 16 10 24 10s18-4 24-10" fill="none" stroke="#e9e6df" stroke-opacity="0.45" stroke-width="4" stroke-linecap="round"/>
  <path d="M92 236c12-14 40-24 68-24s56 10 68 24" fill="none" stroke="#c2362b" stroke-width="4" stroke-dasharray="12 10" stroke-opacity="0.65"/>
  <rect x="92" y="292" width="136" height="48" rx="6" fill="#0d0d0d" stroke="#c2362b" stroke-width="2" stroke-opacity="0.5"/>
  <text x="160" y="320" fill="#e9e6df" font-family="'Archivo Condensed', 'Arial Narrow', sans-serif" font-size="28" text-anchor="middle" letter-spacing="5">DO</text>
  <text x="160" y="350" fill="#c2362b" font-family="'IBM Plex Mono', monospace" font-size="14" text-anchor="middle" letter-spacing="6" opacity="0.7">LEAD ACTOR</text>
</svg>
