<svg xmlns="http://www.w3.org/2000/svg" viewBox="0 0 320 400">
  <defs>
    <linearGradient id="grid" x1="0" y1="0" x2="0" y2="1">
      <stop offset="0%" stop-color="#0b0b0b"/>
      <stop offset="100%" stop-color="#161616"/>
    </linearGradient>
  </defs>
  <rect width="320" height="400" fill="url(#grid)"/>
  <rect x="18" y="18" width="284" height="364" fill="none" stroke="#e9e6df" stroke-opacity="0.14" stroke-width="2"/>
  <path d="M70 282c18-36 58-60 90-60s72 24 90 60" fill="#101010" stroke="#e9e6df" stroke-opacity="0.18" stroke-width="4"/>
  <circle cx="160" cy="150" r="74" fill="#141414" stroke="#e9e6df" stroke-opacity="0.22" stroke-width="4"/>
  <path d="M120 144c8-20 24-30 40-30s32 10 40 30" fill="none" stroke="#e9e6df" stroke-opacity="0.55" stroke-width="6" stroke-linecap="round"/>
  <path d="M126 176c12 12 22 16 34 16s22-4 34-16" fill="none" stroke="#c2362b" stroke-width="5" stroke-linecap="round" stroke-opacity="0.7"/>
  <path d="M138 196c6 6 14 8 22 8s16-2 22-8" fill="none" stroke="#e9e6df" stroke-opacity="0.5" stroke-width="4" stroke-linecap="round"/>
  <rect x="78" y="296" width="164" height="48" rx="10" fill="#0b0b0b" stroke="#c2362b" stroke-width="2" stroke-opacity="0.55" stroke-dasharray="18 10"/>
  <text x="160" y="322" fill="#e9e6df" font-family="'Archivo Condensed', 'Arial Narrow', sans-serif" font-size="30" text-anchor="middle" letter-spacing="4">EB</text>
  <text x="160" y="352" fill="#c2362b" font-family="'IBM Plex Mono', monospace" font-size="14" text-anchor="middle" letter-spacing="6" opacity="0.72">LEAD PRODUCER</text>
</svg>
