<svg xmlns="http://www.w3.org/2000/svg" viewBox="0 0 320 400">
  <defs>
    <linearGradient id="aurora" x1="0" y1="0" x2="1" y2="1">
      <stop offset="0%" stop-color="#070707"/>
      <stop offset="100%" stop-color="#151515"/>
    </linearGradient>
  </defs>
  <rect width="320" height="400" fill="url(#aurora)"/>
  <rect x="24" y="24" width="272" height="352" rx="14" fill="none" stroke="#e9e6df" stroke-opacity="0.18" stroke-width="3"/>
  <circle cx="160" cy="140" r="70" fill="#131313" stroke="#e9e6df" stroke-opacity="0.24" stroke-width="4"/>
  <path d="M116 134c10-22 30-30 44-30s34 8 44 30" fill="none" stroke="#e9e6df" stroke-opacity="0.55" stroke-width="6" stroke-linecap="round"/>
  <path d="M124 166c12 14 24 18 36 18s24-4 36-18" fill="none" stroke="#c2362b" stroke-width="5" stroke-linecap="round" stroke-opacity="0.7"/>
  <path d="M136 190c8 6 16 8 24 8s16-2 24-8" fill="none" stroke="#e9e6df" stroke-opacity="0.48" stroke-width="4" stroke-linecap="round"/>
  <path d="M84 236c16-18 52-28 76-28s60 10 76 28" fill="none" stroke="#c2362b" stroke-width="4" stroke-dasharray="14 10" stroke-opacity="0.6"/>
  <rect x="82" y="292" width="156" height="50" rx="12" fill="#0b0b0b" stroke="#c2362b" stroke-width="2" stroke-opacity="0.58"/>
  <text x="160" y="320" fill="#e9e6df" font-family="'Archivo Condensed', 'Arial Narrow', sans-serif" font-size="28" text-anchor="middle" letter-spacing="5">FN</text>
  <text x="160" y="352" fill="#c2362b" font-family="'IBM Plex Mono', monospace" font-size="14" text-anchor="middle" letter-spacing="6" opacity="0.74">CASTING</text>
</svg>
