<svg xmlns="http://www.w3.org/2000/svg" viewBox="0 0 320 400">
  <defs>
    <linearGradient id="veil" x1="0" y1="0" x2="0" y2="1">
      <stop offset="0%" stop-color="#131313"/>
      <stop offset="100%" stop-color="#050505"/>
    </linearGradient>
  </defs>
  <rect width="320" height="400" fill="url(#veil)"/>
  <rect x="22" y="22" width="276" height="356" rx="18" fill="none" stroke="#f5f1e6" stroke-opacity="0.12" stroke-width="3"/>
  <path d="M60 280c18-42 60-70 100-70s82 28 100 70" fill="#0b0b0b" stroke="#f5f1e6" stroke-opacity="0.18" stroke-width="4"/>
  <circle cx="160" cy="150" r="78" fill="#151515" stroke="#f5f1e6" stroke-opacity="0.22" stroke-width="4"/>
  <path d="M120 138c8-16 22-24 40-24s32 8 40 24" fill="none" stroke="#f5f1e6" stroke-opacity="0.55" stroke-width="6" stroke-linecap="round"/>
  <path d="M124 168c10 10 24 16 36 16s26-6 36-16" fill="none" stroke="#c2362b" stroke-width="5" stroke-linecap="round" stroke-opacity="0.7"/>
  <path d="M136 190c8 4 16 6 24 6s16-2 24-6" fill="none" stroke="#f5f1e6" stroke-opacity="0.45" stroke-width="4" stroke-linecap="round"/>
  <line x1="110" y1="214" x2="210" y2="214" stroke="#c2362b" stroke-width="4" stroke-dasharray="10 8" stroke-opacity="0.6"/>
  <text x="160" y="320" fill="#f5f1e6" font-family="'Archivo Condensed', 'Arial Narrow', sans-serif" font-size="30" text-anchor="middle" letter-spacing="4">GCC</text>
  <text x="160" y="350" fill="#c2362b" font-family="'IBM Plex Mono', monospace" font-size="14" text-anchor="middle" letter-spacing="5" opacity="0.72">SCREENWRITER</text>
</svg>
