<svg xmlns="http://www.w3.org/2000/svg" viewBox="0 0 640 960">
  <defs>
    <linearGradient id="bg" x1="0" y1="0" x2="0" y2="1">
      <stop offset="0%" stop-color="#080808"/>
      <stop offset="60%" stop-color="#050505"/>
      <stop offset="100%" stop-color="#020202"/>
    </linearGradient>
    <linearGradient id="arm" x1="0" y1="0" x2="0.8" y2="1">
      <stop offset="0%" stop-color="#d9d6cf" stop-opacity="0.95"/>
      <stop offset="45%" stop-color="#9a9a95" stop-opacity="0.8"/>
      <stop offset="100%" stop-color="#2a2a2a" stop-opacity="0.4"/>
    </linearGradient>
    <linearGradient id="blood" x1="0" y1="0" x2="0" y2="1">
      <stop offset="0%" stop-color="#c51f1f"/>
      <stop offset="100%" stop-color="#8b0f0f"/>
    </linearGradient>
  </defs>
  <rect width="640" height="960" fill="url(#bg)"/>
  <rect x="60" y="60" width="520" height="840" fill="none" stroke="#f0ebe0" stroke-opacity="0.1" stroke-width="8"/>
  <path d="M352 160c0 40-20 88-54 140-40 64-90 118-154 162" fill="none" stroke="#f0ebe0" stroke-width="12" stroke-linecap="round" stroke-opacity="0.12"/>
  <path d="M226 624c22-48 80-126 132-180 34-36 80-68 118-88" fill="none" stroke="#c51f1f" stroke-width="10" stroke-opacity="0.25" stroke-linecap="round"/>
  <path d="M390 180c-58 98-154 220-190 334-18 58-14 104 20 128 30 22 78 18 134-18 42-28 84-72 122-122 38-50 68-104 84-152" fill="none" stroke="#f0ebe0" stroke-width="14" stroke-opacity="0.18" stroke-linecap="round"/>
  <path d="M452 190c-22 50-36 92-68 142-46 70-112 132-144 170-40 48-66 110-70 158" fill="none" stroke="#f0ebe0" stroke-width="16" stroke-opacity="0.12" stroke-linecap="round"/>
  <path d="M414 210c-20 32-38 64-62 102-46 72-92 130-142 184" fill="none" stroke="#f0ebe0" stroke-width="12" stroke-linecap="round" stroke-opacity="0.22"/>
  <path d="M360 140c18 2 52 12 62 32 14 28-46 118-140 244-86 116-142 180-154 200" fill="none" stroke="#f0ebe0" stroke-width="14" stroke-linecap="round" stroke-opacity="0.16"/>
  <path d="M364 140c-6 42-36 122-64 184-22 50-60 120-106 188" fill="none" stroke="#f0ebe0" stroke-width="10" stroke-opacity="0.2" stroke-linecap="round"/>
  <path d="M380 150c34 10 82 40 104 72 20 28 30 58 36 90" fill="none" stroke="#f0ebe0" stroke-width="8" stroke-opacity="0.15" stroke-linecap="round"/>
  <path d="M398 172c28 8 70 28 94 56 36 40 54 86 60 120" fill="none" stroke="#c51f1f" stroke-width="12" stroke-opacity="0.22" stroke-linecap="round"/>
  <path d="M308 132c18-28 48-34 74-28 40 10 64 50 58 82-10 48-94 166-156 244-76 94-156 184-202 226" fill="none" stroke="#f0ebe0" stroke-width="10" stroke-opacity="0.12" stroke-linecap="round"/>
  <path d="M320 120c-42 52-90 118-116 184-32 82-52 146-70 192" fill="none" stroke="#f0ebe0" stroke-width="10" stroke-opacity="0.1" stroke-linecap="round"/>
  <path d="M352 120c18 2 40 10 58 30 22 24 38 58 34 84-6 40-40 92-94 160-56 70-132 154-208 230" fill="none" stroke="#f0ebe0" stroke-width="12" stroke-opacity="0.12" stroke-linecap="round"/>
  <path d="M360 120c-10 28-34 80-54 124-36 80-74 150-124 220" fill="none" stroke="#c51f1f" stroke-width="10" stroke-opacity="0.2" stroke-linecap="round"/>
  <path d="M400 200c-16 32-40 86-66 132-40 70-88 138-124 186" fill="none" stroke="#f0ebe0" stroke-width="12" stroke-opacity="0.16" stroke-linecap="round"/>
  <path d="M312 144c-20 44-62 126-100 188-30 48-80 118-116 164" fill="none" stroke="#f0ebe0" stroke-width="8" stroke-opacity="0.18" stroke-linecap="round"/>
  <path d="M264 280c10-42 44-136 74-184 18-26 42-46 68-52 32-8 68 6 84 26 24 30 12 88-10 130-20 38-70 118-116 168-62 66-128 114-176 138-40 18-98 30-118-4-14-22-12-72 16-128 38-76 128-206 178-298z" fill="#121212" stroke="#f0ebe0" stroke-width="12" stroke-opacity="0.16" stroke-linecap="round"/>
  <path d="M338 212c26-34 66-58 90-56 24 2 38 26 34 52-8 58-80 160-160 240-72 72-140 118-190 140" fill="none" stroke="#f0ebe0" stroke-width="10" stroke-opacity="0.18" stroke-linecap="round"/>
  <path d="M420 168c-16 32-64 88-110 140-58 64-122 122-178 162" fill="none" stroke="#f0ebe0" stroke-width="9" stroke-opacity="0.14" stroke-linecap="round"/>
  <text x="92" y="146" fill="#f0ebe0" font-family="'IBM Plex Mono', monospace" font-size="28" letter-spacing="8">MOMMY LOVES YOU</text>
  <text x="84" y="860" fill="#f0ebe0" font-family="'Archivo Condensed', 'Impact', 'Arial Narrow', sans-serif" font-size="92" letter-spacing="8">GOLGOTHA</text>
  <text x="84" y="760" fill="#f0ebe0" font-family="'IBM Plex Mono', monospace" font-size="20" letter-spacing="8" opacity="0.6">COLD BRICK PRESENTS</text>
  <text x="84" y="800" fill="#f0ebe0" font-family="'IBM Plex Mono', monospace" font-size="18" letter-spacing="5" opacity="0.6">DIRECTED BY CHRISTOPHER ROSICA</text>
  <text x="84" y="828" fill="#f0ebe0" font-family="'IBM Plex Mono', monospace" font-size="18" letter-spacing="5" opacity="0.6">WRITTEN BY GRACE CAROLINE CURLEY</text>
  <text x="84" y="856" fill="#f0ebe0" font-family="'IBM Plex Mono', monospace" font-size="18" letter-spacing="5" opacity="0.6">STARRING DANIEL OAKLEY</text>
  <text x="84" y="888" fill="#f0ebe0" font-family="'IBM Plex Mono', monospace" font-size="18" letter-spacing="5" opacity="0.6">PRODUCED BY ETHAN BELLER</text>
  <text x="84" y="916" fill="#f0ebe0" font-family="'IBM Plex Mono', monospace" font-size="18" letter-spacing="5" opacity="0.6">CASTING BY FAITH NICHOLAS</text>
  <path d="M346 248c42-52 88-82 110-82 30 0 50 36 38 78-12 40-50 106-110 180-46 56-120 124-194 176" fill="none" stroke="#c51f1f" stroke-width="12" stroke-opacity="0.28" stroke-linecap="round"/>
  <path d="M320 232c16-24 44-58 76-80 24-16 58-22 78-6 22 16 24 46 16 78-10 46-40 112-96 186-44 58-114 128-190 182" fill="none" stroke="#f0ebe0" stroke-width="12" stroke-opacity="0.16" stroke-linecap="round"/>
</svg>
